<svg id="Layer_1" data-name="Layer 1" xmlns="http://www.w3.org/2000/svg" viewBox="0 0 69 69"><defs><style>.cls-1{fill:#f38522;}</style></defs><path class="cls-1" d="M32.42,53.48c7,.62,13.62-.47,19.73-4.27a39.77,39.77,0,0,1,9.16-4.12c4.73-1.48,5.75.51,6.38,1.55A3.27,3.27,0,0,1,66.5,51a35.93,35.93,0,0,1-3.89,2.18c-6,3.28-12,6.62-18.1,9.77a8.86,8.86,0,0,1-4.41.92c-7.53-.49-15.1-1.53-22.52.42C14.86,65,12.52,67,9.83,68c-1.92.68-4.66,1-7.16-2.45-7-9.65,3.84-13.91,9.33-16.59,2.05-1,3.8-2.62,5.8-3.76,2.23-1.28,4.59-1.25,7.14-.67,4.12.93,8.33,1.5,12.51,2.16,1.69.26,3.48.1,5.08.61,1.1.35,2.89,1.07,2.89,2.32S43.5,51.73,42.35,52a59.26,59.26,0,0,1-7.31,1C34.16,53.18,33.29,53.34,32.42,53.48Z"/><path class="cls-1" d="M40,5.56c4.42-4.09,9.19-6.32,14.87-2.84s7.85,9.67,6.34,17c-3.08,0-6.23.07-9.37,0-1.55-.05-2.07.08-2.86,2S47.87,24.42,47,27c-.28-6.48-1.74-19.36-2-19.41L41.31,21.65l-3.47-3.93c-1.62,3.54-2.75,6.74-4.22,9.94-.14,0-2.22-20.08-2.52-20.12L27.56,21.25c-2.51-2.94-5.91-.65-8.75-1.72-2.1-5,.31-12.52,5.25-16.17S33.82.3,40,5.56Z"/><path class="cls-1" d="M19,21.79c3.3.65,7.17-1.61,8.76,3.45.18-.2,2-6.68,2.89-9.95.12,0,2.11,16.16,2.36,16.8.47-.47,3.59-8,5.08-11.29l3.77,4.28c1-3.89,1.89-7.26,2.76-10.63.09,0,1.48,18.06,1.66,18.11.24-.33,2.7-6.39,3.57-9.13a2,2,0,0,1,2.23-1.65c2.79.1,5.59,0,9.09,0a72.94,72.94,0,0,1-3.88,6.83c-4.3,6-10.11,10.27-16.35,14a2.39,2.39,0,0,1-2.07,0c-6.74-4.14-13.06-8.77-17.42-15.57a34.5,34.5,0,0,1-1.79-3.34A17.49,17.49,0,0,1,19,21.79Z"/></svg>