<svg id="Layer_1" data-name="Layer 1" xmlns="http://www.w3.org/2000/svg" viewBox="0 0 69 69"><defs><style>.cls-1{fill:#f38522;}</style></defs><path class="cls-1" d="M35.17,68.75H33.83c-1.53-.71-3.08-1.38-4.58-2.14a49.07,49.07,0,0,1-14-10.1,48.06,48.06,0,0,1-11.17-21A86.79,86.79,0,0,1,1.49,13.3a3.77,3.77,0,0,1,3-3.89Q18.69,5,32.93.5a5.1,5.1,0,0,1,3.14,0Q50.22,4.94,64.38,9.35c2.26.7,3.24,2,3.12,4.35-.19,3.92-.34,7.84-.74,11.74a60.82,60.82,0,0,1-5.06,19A43.19,43.19,0,0,1,45.11,63.58,66.47,66.47,0,0,1,35.17,68.75ZM60,15.93c-.33-.12-.58-.22-.83-.3C51.43,13.22,43.71,10.83,36,8.39a4.66,4.66,0,0,0-3,0c-7.71,2.44-15.43,4.83-23.15,7.24-.37.12-.8.12-.77.77A79,79,0,0,0,11.48,34a41.75,41.75,0,0,0,7,14.75A38.6,38.6,0,0,0,31.66,59.36c.93.48,1.88,1.28,2.82,1.28s1.93-.8,2.88-1.29a39.56,39.56,0,0,0,11.7-8.88,39.57,39.57,0,0,0,8.07-15.09,64,64,0,0,0,2.38-12.65C59.71,20.47,59.82,18.2,60,15.93Z"/><path class="cls-1" d="M44.67,15.64C36.12,24.19,27.6,32.72,19,41.33c-.72-1.51-1.51-3-2.16-4.55a45.36,45.36,0,0,1-3.46-17.25c0-.45.2-.56.55-.67,5.78-1.8,11.59-3.51,17.32-5.45a8.93,8.93,0,0,1,6.55,0c2.18.87,4.49,1.44,6.74,2.15Z"/><path class="cls-1" d="M55.61,20a45.78,45.78,0,0,1-4.18,19A36.93,36.93,0,0,1,40.8,52.55,66.71,66.71,0,0,1,35,56.25a1,1,0,0,1-.79.09,38.72,38.72,0,0,1-8.52-6.4Z"/></svg>