<svg id="Layer_1" data-name="Layer 1" xmlns="http://www.w3.org/2000/svg" viewBox="0 0 69 69"><defs><style>.cls-1{fill:#f38522;}</style></defs><path class="cls-1" d="M31.53,39.46c-3-1-5.69-1.85-8.36-2.78-2.35-.81-2.77-2.26-1-4,6-6.07,13.54-13.87,18.16-18.05.55-.5,2.14-1.12,2.94-.51s.58,2.3.3,3c-1.22,3.08-3.92,8.06-6.06,12.36l8,2.78c2.75,1,3.12,2.34,1.1,4.36C40.79,42.45,35,48.25,29.14,54.08c-1,1-2,1.75-3.33.85s-.91-2.18-.29-3.41C27.5,47.6,29.44,43.66,31.53,39.46Z"/><path class="cls-1" d="M56.64,51.58c-1.39,0-2.42,0-3.29-.08a1.92,1.92,0,0,1-1.86-2,1.74,1.74,0,0,1,1.63-1.89A64.12,64.12,0,0,1,61,47.07c1.51,0,2,1.11,2,2.46,0,2.09,0,4.19,0,6.29,0,1.47-.33,2.39-1.87,2.45-2.1.07-1.9-2-2-3.43-1,1.64-5.69,5.78-8.6,7.49C29.81,74.49,3.27,60,2.22,36c0-2.26,1-3.59,2-3.6s1.81,1.36,2,2.21c.61,2.53.54,5.24,1.29,7.7C10.75,52.67,17.72,59.44,28.22,61.8c10.77,2.43,20-1.89,27.26-9C55.72,52.54,56.22,52.07,56.64,51.58Z"/><path class="cls-1" d="M13,17.45a15.43,15.43,0,0,1,2.49.08c1.08.14,2,.6,1.94,1.86a2.8,2.8,0,0,1-1.72,2A60.33,60.33,0,0,1,8.36,22C6.8,22,6,21.18,6,19.62c0-2.18,0-4.35,0-6.52a2.18,2.18,0,0,1,2-2.41c2.06-.1,1.83,2.8,1.79,4A31.6,31.6,0,0,1,21.16,5.34c20.73-9.84,45,5.24,45.62,28.18,0,1.45-.12,2.84-2,2.94s-2.17-1.12-2.23-2.66A28.29,28.29,0,0,0,42.12,7.47,27,27,0,0,0,13,17.45Z"/></svg>